<?xml version="1.0" encoding="UTF-8"?>
<!DOCTYPE svg PUBLIC "-//W3C//DTD SVG 1.1//EN" "http://www.w3.org/Graphics/SVG/1.1/DTD/svg11.dtd">
<!-- Creator: CorelDRAW -->
<svg xmlns="http://www.w3.org/2000/svg" xml:space="preserve" width="13.3407in" height="3.02739in" version="1.1" style="shape-rendering:geometricPrecision; text-rendering:geometricPrecision; image-rendering:optimizeQuality; fill-rule:evenodd; clip-rule:evenodd"
viewBox="0 0 10745.98 2438.57"
 xmlns:xlink="http://www.w3.org/1999/xlink"
 xmlns:xodm="http://www.corel.com/coreldraw/odm/2003">
 <defs>
  <style type="text/css">
   <![CDATA[
    .fil7 {fill:black}
    .fil0 {fill:#E435AB}
    .fil9 {fill:#FD0000}
    .fil3 {fill:#FDB283}
    .fil5 {fill:#FE8338}
    .fil1 {fill:#FEC7A5}
    .fil2 {fill:#FED3B8}
    .fil8 {fill:#FEFEFE}
    .fil4 {fill:#FF2D20}
    .fil6 {fill:#FFFEFE}
   ]]>
  </style>
 </defs>
 <g id="Layer_x0020_1">
  <metadata id="CorelCorpID_0Corel-Layer"/>
  <g id="_105553228481056">
   <path class="fil0" d="M6172.63 1759.13l1257.43 0c-5.36,20.09 -16.23,17.76 -53.42,39.18l-57.74 34.86c-20.3,12.21 -39.12,21.89 -59.17,33.43l-120.6 69.48c-21.58,12.06 -41.73,22.05 -61.98,35.5 -39.43,26.2 -82.1,44.94 -119.85,70.22 -52.1,-34.89 -61.62,-60.64 -151.93,-67.72 -21.85,-1.71 -71.6,10.33 -88.45,17.41 -29.94,12.59 -45.17,26.74 -66.67,45.43l-359.72 -205.63c-17.35,-10.43 -107.81,-58.4 -117.9,-72.17zm-58.48 -209.57l471.25 -810.54c26.38,-47.33 51.38,-88.88 77.98,-136.47l79.48 -134.96 63.36 4.87c27.05,0 28.9,-4.87 53.61,-4.87 12.81,24.21 22.72,41.23 36.93,65.41l352.97 612.04c25.05,46.26 53.36,88.01 79.48,134.96 15.59,28.01 149.32,252.4 154.45,274.44 -22.01,32.87 -41.34,44.79 -53.61,97.47l-1262.3 0c-0.89,-39.89 -36.12,-76.23 -53.61,-102.35zm-92.6 -48.74l0 -555.61c26.95,-2.24 41.22,-14.17 61.35,-26.38 19.5,-11.82 33.28,-24.17 46.72,-41.01 37.12,-46.53 64.23,-136.56 38.15,-190.92l298.26 -169.62c4.47,-2.81 9.67,-6.67 14.71,-9.65 8.47,-5.01 7.16,-3.62 15.98,-8.39 12.9,-6.98 17.6,-11.56 30.17,-18.57l90.17 -51.17c12.84,-7.89 16.91,-11.73 33.21,-15.52 -4.91,21.07 -63.36,111.58 -77.73,136.7l-313.66 544.12c-26.55,47.49 -50.57,89.29 -78.59,135.86l-146.86 252.79c-3.2,5 -2.66,4.48 -5.68,8.94 -6.86,10.1 -1.35,2.87 -6.19,8.44zm926.02 -1086.84c25.69,5.98 234.08,129.84 269.59,149.54 12.43,6.9 17.73,11.83 29.71,19.03l121.34 68.73c21.86,12.22 40.93,24.55 61.86,35.62 -1.44,17.24 -9.75,38.41 -9.75,53.61 0,58 29.15,113.41 61.49,148.08l4.73 5.01c22.69,22.82 60.36,48.76 94.61,51.61l0 555.61c-16.37,-11.99 -146.57,-246.82 -159.9,-268.99l-78.91 -135.52c-24.82,-45.84 -53.19,-90.62 -77.98,-136.47l-157.5 -271.39c-27.92,-46.59 -50.63,-88.78 -78.51,-135.93l-58.41 -102.42c-8.81,-14.63 -14.58,-21.42 -22.36,-36.12zm-360.66 -151.09c0,15.88 6.49,44.5 9.75,58.48l-477.63 272.93c-45.78,-30.66 -77.68,-63.36 -155.96,-63.36 -55.03,0 -119.42,33.55 -147.64,61.93 -79.08,79.54 -78.4,198.83 -13.32,284.23 39.17,51.4 79.61,55.73 112.22,72.99l0 550.73c-153.16,35.68 -213.59,233.1 -103.7,347.38 75.9,78.94 193.76,89.85 279.29,28.03 12.28,-8.88 16.74,-16.22 29.11,-24.5 83.66,56.02 302.3,173 413.33,239.75l64.3 33.18c-15.3,65.64 -10.56,125.87 29.14,180.43 18.4,25.29 27.17,35.25 52.94,54.28 10.8,7.97 23,13.05 34.75,18.86 148.73,73.52 297.44,-64.8 297.44,-170.72 0,-68.31 2.95,-33.23 -9.75,-87.73l384.06 -220.28c10.93,-6.88 20,-10.9 31.15,-17.59 21.28,-12.79 41.04,-23.74 62.42,-35.06 49.74,74.28 205.54,104.29 301,8.58 104.91,-105.18 79.85,-260.36 -39.76,-333.19 -10.29,-6.27 -17.52,-9.92 -29.79,-14.07 -14.9,-5.05 -26.76,-4.24 -26.76,-21.98l0 -526.36c0,-27.21 33.14,-0.7 106.1,-74.22 146.08,-147.18 -10.42,-427.8 -242,-334.6 -31.81,12.8 -39.24,26.76 -63.93,43.29 -15.95,-3.71 -44.83,-22.74 -60.56,-32.04l-179.19 -103.49c-20.43,-12.28 -37.67,-21.6 -59.05,-33.55l-178.83 -103.85c1.07,-48.09 22,-111.3 -33.37,-181.08 -6.42,-8.09 -14.97,-19.79 -21.61,-27.12 -116.13,-128.46 -364.16,-45.51 -364.16,149.72z"/>
   <path class="fil1" d="M4017.91 1704.78c-11.49,-10.89 -32.09,-6.74 -54.86,-6.7 -125.04,0.21 -294.56,-4.07 -408.39,0.29 46.36,19.44 375.38,-4.85 463.26,6.41z"/>
   <path class="fil2" d="M3550.66 1360.86l465.53 -3.3 -7.24 -5.63 -11.54 4.02c-75.13,-0.54 -150.14,-0.54 -225.15,-0.54 -46.62,0 -190.73,-10.14 -221.61,5.44z"/>
   <path class="fil1" d="M3405.93 1556.64l-0.06 -54.9c-9.51,16.42 -9.6,38.5 0.06,54.9z"/>
   <path class="fil3" d="M3952.94 2206.01l-45.34 0.73c15.21,7.7 29.94,8.87 45.34,-0.73z"/>
   <path class="fil3" d="M3757.49 1049.14l-0.1 -43.04c-7.89,16.49 -8.08,26.51 0.1,43.04z"/>
   <path class="fil2" d="M3489.4 1679.31c0,-8.4 1.86,-5.93 -7.29,-5.57 0,7.49 -1.55,4.79 7.29,5.57z"/>
   <path class="fil3" d="M3435.19 1427.37c-8.58,0 -6.37,-2.1 -6.29,6.64 7.69,0 5.16,1.73 6.29,-6.64z"/>
   <path class="fil2" d="M4580.29 1618.84c-8.38,0 -6.05,-1.95 -5.88,6.91 7.59,0 5.01,1.65 5.88,-6.91z"/>
   <path class="fil1" d="M3787.57 1942.05c-7.67,0 -5.07,-1.65 -5.69,7.1 8.03,0 5.53,1.78 5.69,-7.1z"/>
   <path class="fil1" d="M3787.84 1125.97c-0.24,-8.75 2.19,-6.91 -5.9,-6.91 0.67,8.63 -1.86,6.91 5.9,6.91z"/>
   <path class="fil1" d="M3435.93 1629.36c-0.2,-8.75 2.19,-6.85 -6.02,-6.85 0.89,8.55 -1.66,6.85 6.02,6.85z"/>
   <path class="fil3" d="M3478.73 1383.96c-8.58,-0 -6.46,-2.16 -6.46,6.36 8.17,-1.31 6.46,1.2 6.46,-6.36z"/>
   <path class="fil1" d="M3480.91 1673.41c0,-8.02 1.83,-5.6 -6.86,-5.85 0,7.62 -1.67,5.09 6.86,5.85z"/>
   <path class="fil1" d="M3837.05 880.64c-8.28,0.71 -6.51,-1.67 -6.51,6.03 8.34,-0.51 6.51,1.82 6.51,-6.03z"/>
   <path class="fil2" d="M3831.83 1893.36c-8.37,0 -6.44,-2.19 -6.44,5.88 7.93,-0.37 5.95,1.77 6.44,-5.88z"/>
   <path class="fil1" d="M4570.15 1633.3c-7.97,0 -5.69,-1.92 -6.32,6.29 7.71,0 5.34,1.81 6.32,-6.29z"/>
   <path class="fil1" d="M3792.39 2138.78c-0.24,-8.24 1.92,-6.26 -6.15,-6.26 0.87,8.04 -1.46,6.26 6.15,6.26z"/>
   <path class="fil1" d="M4027.49 2177.01c-8.37,0.48 -6.6,-1.9 -6.6,5.86 8.31,-0.67 6.6,1.74 6.6,-5.86z"/>
   <path class="fil1" d="M3787.15 928.81c-7.87,0 -5.59,-1.85 -5.96,6.46 7.61,0 5.23,1.74 5.96,-6.46z"/>
   <path class="fil2" d="M3846.29 1878.38c-8.16,0 -6.1,-2.03 -6.1,6.15 7.74,-0.44 5.7,1.6 6.1,-6.15z"/>
   <path class="fil3" d="M3850.5 1195.4c0,-8.22 2.09,-6.24 -6,-6.24 0.39,7.83 -1.7,5.84 6,6.24z"/>
   <path class="fil2" d="M4506.36 1697.09c-7.66,0.43 -5.58,-1.56 -5.96,6.24 8.06,0 5.96,1.97 5.96,-6.24z"/>
   <path class="fil3" d="M4198.82 2010.78c-8.31,0 -6.32,-2.12 -6.32,6.03 7.66,-0.55 5.62,1.52 6.32,-6.03z"/>
   <path class="fil3" d="M3811.7 2163.56c0,-7.95 1.9,-5.8 -6.33,-5.8 0.47,7.56 -1.48,5.46 6.33,5.8z"/>
   <path class="fil1" d="M4036.99 896.53c0,-7.71 1.85,-5.43 -6.08,-6.37 0,7.85 -1.91,5.61 6.08,6.37z"/>
   <path class="fil2" d="M3830.68 2177.61c1.39,-7.73 2.59,-5.31 -5.98,-5.08 0,7.08 -1.62,5.01 5.98,5.08z"/>
   <path class="fil3" d="M4305.86 1159.68c0.93,-7.69 2.56,-5.6 -5.35,-5.87 0,7.63 -1.99,5.88 5.35,5.87z"/>
   <path class="fil3" d="M3836.27 2182.91c0,-7.13 1.73,-5.22 -5.59,-5.3 -1.34,7.68 -2.69,5.45 5.59,5.3z"/>
   <path class="fil2" d="M4481.51 1336.14c0.43,-7.48 2.09,-5.44 -5.68,-5.44 0.41,7.68 -1.7,6.1 5.68,5.44z"/>
   <path class="fil3" d="M3825.9 1170.94c0,-7.62 1.99,-5.96 -5.39,-5.56 -0.9,7.36 -2.38,5.23 5.39,5.56z"/>
   <path class="fil2" d="M4535.87 1667.86c-7.59,0.59 -6.09,-1.56 -5.47,5.61 7.49,0.47 5.47,2.14 5.47,-5.61z"/>
   <path class="fil2" d="M4487.09 1341.61c0,-7.79 2,-6.11 -5.58,-5.46 -0.44,7.1 -1.96,4.97 5.58,5.46z"/>
   <path class="fil3" d="M4174.5 2035.43c-7.74,0 -6.13,-2.08 -5.86,5.22 7.41,0.63 5.39,2.3 5.86,-5.22z"/>
   <path class="fil2" d="M3821.84 1902.87c-7.59,0 -5.81,-1.92 -5.54,5.56 7.25,0.51 5.13,2.07 5.54,-5.56z"/>
   <path class="fil3" d="M4291.08 1145.03c0.72,-7.23 2.19,-5.06 -5.51,-5.54 0,7.56 -1.93,5.81 5.51,5.54z"/>
   <path class="fil3" d="M3796.41 1927.46c-7.37,-0.84 -5.13,-2.22 -5.13,5.82 7.1,0 5.11,1.66 5.13,-5.82z"/>
   <path class="fil3" d="M3865.48 1209.68c0,-7.66 2.05,-6.03 -5.19,-5.83 -0.81,7.39 -2.4,5.33 5.19,5.83z"/>
   <path class="fil3" d="M3835.45 1179.93c0.41,-7.38 2.06,-5.39 -5.58,-5.39 0.51,7.59 -1.62,6.1 5.58,5.39z"/>
   <path class="fil2" d="M4530.4 1673.47c-7.01,-0.48 -4.86,-1.95 -5.48,5.54 7.74,0 6.08,2 5.48,-5.54z"/>
   <path class="fil3" d="M4041.67 2168.07c-7.65,-0.76 -5.79,-2.53 -5.79,5.06 7.61,-0.31 6.2,1.87 5.79,-5.06z"/>
   <path class="fil1" d="M4570.46 1424.58c-0.72,-7.64 1.53,-6.25 -5.5,-5.6 -0.25,7.5 -2.05,5.6 5.5,5.6z"/>
   <path class="fil2" d="M4564.96 1418.98c0.25,-7.33 1.93,-5.33 -5.68,-5.33 0.58,7.5 -1.52,5.96 5.68,5.33z"/>
   <path class="fil3" d="M4183.23 2025.81c-7.4,-0.43 -5.36,-2.06 -5.36,5.67 7.37,-0.74 5.84,1.37 5.36,-5.67z"/>
   <path class="fil3" d="M4188.76 2020.34c-7.67,0 -6,-1.98 -5.52,5.47 6.98,0.43 4.85,1.93 5.52,-5.47z"/>
   <path class="fil3" d="M3875.16 1218.45c0.37,-7.41 2.05,-5.41 -5.62,-5.41 0.73,7.37 -1.39,5.84 5.62,5.41z"/>
   <path class="fil3" d="M4159.12 2050.48c-6.92,-0.16 -5.28,-1.89 -5.19,4.92 7.81,1.07 6.19,2.82 5.19,-4.92z"/>
   <path class="fil3" d="M4330.78 1183.55c0.79,-7.21 2.1,-5.17 -5.64,-4.32 -0.05,6.73 -1.55,4.86 5.64,4.32z"/>
   <path class="fil3" d="M4124.72 2084.76c-6.72,-0.68 -4.95,-2.18 -5.2,4.62 7.4,1.37 5.67,2.9 5.2,-4.62z"/>
   <path class="fil3" d="M4144.63 2065.47c-7.06,-0.47 -5.5,-2.23 -5.34,4.58 7.46,0.76 5.97,2.6 5.34,-4.58z"/>
   <path class="fil2" d="M4437.63 1292.02c0.2,-6.77 1.81,-5.05 -5.07,-4.89 -0.62,7.43 -2.32,5.8 5.07,4.89z"/>
   <path class="fil3" d="M4335.13 1189.03c0.68,-7.45 2.62,-6.09 -4.35,-5.48 -0.7,7.26 -2.54,5.79 4.35,5.48z"/>
   <path class="fil3" d="M4148.91 2059.83c-6.7,-0.02 -4.86,-1.52 -4.28,5.63 7.03,0.51 5.07,1.89 4.28,-5.63z"/>
   <path class="fil3" d="M3820.52 1165.38c0.82,-7.29 2.65,-5.83 -4.29,-5.46 -0.61,7.26 -2.51,5.87 4.29,5.46z"/>
   <path class="fil3" d="M3816.23 1159.92c0.64,-6.73 2.18,-5.02 -4.56,-5.15 -1.14,7.19 -2.69,5.5 4.56,5.15z"/>
   <path class="fil1" d="M4089.8 2118.28c-7.09,-0.48 -5.63,-2.29 -5.32,4.44 7.23,0.68 5.76,2.48 5.32,-4.44z"/>
   <path class="fil1" d="M4408.43 1262.45c0.27,-6.77 1.71,-4.91 -5.5,-4.28 -0.27,6.77 -1.71,4.91 5.5,4.28z"/>
   <path class="fil1" d="M4388.01 1243.69c0.42,-6.98 2.18,-5.45 -4.54,-5.27 -0.63,7.19 -2.4,5.67 4.54,5.27z"/>
   <path class="fil1" d="M4442.68 1296.67c0.35,-7.11 2.02,-5.56 -5.04,-4.65 -0.2,6.76 -1.8,5.12 5.04,4.65z"/>
   <path class="fil1" d="M4447.41 1301.6c1.02,-7.12 2.51,-5.4 -4.73,-4.93 -0.35,6.7 -1.94,5.07 4.73,4.93z"/>
   <path class="fil3" d="M4168.64 2040.65c-7.18,-0.6 -5.74,-2.43 -5.35,4.39 7.06,0.49 5.61,2.3 5.35,-4.39z"/>
   <path class="fil1" d="M4427.84 1282.12c0.49,-7.06 2.25,-5.56 -4.53,-5.24 -0.38,6.99 -2.16,5.5 4.53,5.24z"/>
   <path class="fil1" d="M4432.56 1287.12c0.62,-6.91 2.21,-5.25 -4.72,-5 -0.5,6.81 -2.09,5.16 4.72,5z"/>
   <path class="fil3" d="M3772.07 2106.64l-4.56 -8.98c-0.83,10.57 -4,8.98 4.56,8.98z"/>
   <path class="fil3" d="M4593.89 1464.85c0.76,-10.1 3.71,-8.44 -4.81,-8.44l4.81 8.44z"/>
   <path class="fil2" d="M3781.95 1950.88l-5.1 8.01c8.55,0 5.8,1.75 5.1,-8.01z"/>
   <path class="fil3" d="M4593.7 1593.38l-4.66 8.59c8.32,0 5.29,1.58 4.66,-8.59z"/>
   <path class="fil3" d="M4003.43 2191.57l-8.33 4.81c9.96,0.6 8.33,3.53 8.33,-4.81z"/>
   <path class="fil3" d="M4017.93 881.81c0,-8.57 1.84,-5.99 -7.65,-5.36l7.65 5.36z"/>
   <path class="fil1" d="M3771.77 1969.73l-4.47 8.75c7.98,0 4.85,1.47 4.47,-8.75z"/>
   <path class="fil1" d="M3782.71 2123.96c0.23,-9.63 3.06,-8.01 -5.02,-8.01l5.02 8.01z"/>
   <path class="fil3" d="M3772.64 953.25c-8.14,0 -5.39,-1.63 -4.87,7.89l4.87 -7.89z"/>
   <path class="fil3" d="M4589.14 1454.67c0.52,-9.33 3.14,-7.61 -5.1,-7.61l5.1 7.61z"/>
   <path class="fil1" d="M3777.68 2114.24c0.35,-9.36 3.03,-7.7 -5.03,-7.7l5.03 7.7z"/>
   <path class="fil3" d="M4013.13 2186.84l-8.15 4.65c9.67,0.34 8.15,3.23 8.15,-4.65z"/>
   <path class="fil3" d="M4008.26 876.65c0,-8.05 1.66,-5.37 -7.65,-5.08l7.65 5.08z"/>
   <path class="fil3" d="M3420.6 1605.83l-4.87 -7.63c-0.45,9.26 -3.11,7.63 4.87,7.63z"/>
   <path class="fil1" d="M4521.85 1682.99l-6.42 6.31c8.52,0 6.42,2.15 6.42,-6.31z"/>
   <path class="fil1" d="M4545.98 1658.23l-6.19 6.45c8.36,0 6.19,2.05 6.19,-6.45z"/>
   <path class="fil3" d="M4588.94 1603.57l-5.12 7.18c7.8,0 5.3,1.66 5.12,-7.18z"/>
   <path class="fil2" d="M4560.4 1643.49l-5.94 6.36c8.09,0 5.94,1.96 5.94,-6.36z"/>
   <path class="fil3" d="M3890.28 1233.93c0,-8.26 2.1,-6.26 -6.04,-6.26l6.04 6.26z"/>
   <path class="fil3" d="M4213.11 1995.76c-8.14,0 -6.06,-2.01 -6.06,6.21l6.06 -6.21z"/>
   <path class="fil3" d="M4281.71 1136.03l-5.87 -6.39c0,8.32 -2.17,6.39 5.87,6.39z"/>
   <path class="fil3" d="M4252.31 1106.66l-6.47 -5.78c0,7.99 -1.89,5.78 6.47,5.78z"/>
   <path class="fil3" d="M4267.02 1121.26l-6.23 -6.01c0,8.1 -1.99,6.01 6.23,6.01z"/>
   <path class="fil2" d="M4496.73 1351.48c0,-8.2 2.07,-6.2 -6.04,-6.2l6.04 6.2z"/>
   <path class="fil3" d="M4364.04 1218.79c1.44,-8.18 3.27,-6.69 -4.75,-5.17l4.75 5.17z"/>
   <path class="fil1" d="M4472.85 1326.62c0,-8.11 2.12,-6.58 -5.63,-5.46l5.63 5.46z"/>
   <path class="fil3" d="M3797.07 915.69c-7.77,-1.47 -5.78,-3.07 -5.9,4.87l5.9 -4.87z"/>
   <path class="fil3" d="M4114.67 2094.17l-5.28 4.5c8.1,1.37 6.77,3.31 5.28,-4.5z"/>
   <path class="fil1" d="M4133.88 2074.24c-7.88,-1.33 -6.1,-2.82 -4.61,5.18l4.61 -5.18z"/>
   <path class="fil3" d="M4100.06 2108.89l-4.97 4.97c7.9,1.27 6.24,2.93 4.97,-4.97z"/>
   <path class="fil1" d="M4319.61 1175.26l-4.79 -5.19c-1.13,7.98 -2.98,6.5 4.79,5.19z"/>
   <path class="fil3" d="M3816.14 895.45c-7.95,-0.93 -6.45,-2.79 -5.17,4.95l5.17 -4.95z"/>
   <path class="fil3" d="M3860.29 1203.85c0.81,-7.63 2.45,-5.62 -5.38,-5.62l5.38 5.62z"/>
   <path class="fil3" d="M3841.24 1185.18c0,-7.71 1.91,-5.94 -5.79,-5.25l5.79 5.25z"/>
   <path class="fil1" d="M4119.52 2089.38c-7.84,-1.36 -6.27,-3.01 -4.85,4.79l4.85 -4.79z"/>
   <path class="fil1" d="M4344.58 1198.99l-5.25 -4.5c-1.34,7.69 -2.7,5.79 5.25,4.5z"/>
   <path class="fil2" d="M4467.22 1321.16l-4.85 -5.17c-1.08,7.84 -2.86,6.28 4.85,5.17z"/>
   <path class="fil1" d="M3807.02 1917.2c-7.78,0 -6.04,-2 -5.65,5.59l5.65 -5.59z"/>
   <path class="fil3" d="M4296.38 1150.71l-5.3 -5.68c-0.69,7.62 -2.41,5.68 5.3,5.68z"/>
   <path class="fil1" d="M3802.17 910.91l-5.1 4.78c7.68,1.47 5.94,3.02 5.1,-4.78z"/>
   <path class="fil1" d="M3811.66 1154.77c1.15,-7.73 2.77,-6.09 -4.98,-4.81l4.98 4.81z"/>
   <path class="fil3" d="M4129.27 2079.42l-4.54 5.34c7.7,0.69 6.04,2.34 4.54,-5.34z"/>
   <path class="fil2" d="M3816.3 1908.43c-7.57,-0.49 -5.63,-2.23 -5.63,5.43l5.63 -5.43z"/>
   <path class="fil3" d="M3880.79 1223.92c0,-7.65 1.93,-5.88 -5.63,-5.47l5.63 5.47z"/>
   <path class="fil3" d="M3821.87 890.51l-5.73 4.94c7.59,0.95 5.73,2.65 5.73,-4.94z"/>
   <path class="fil1" d="M4359.28 1213.62l-4.74 -4.84c-1.11,7.79 -2.86,6.35 4.74,4.84z"/>
   <path class="fil3" d="M3801.71 1145.08c0.67,-7.31 2.12,-5.13 -5.79,-5.13l5.79 5.13z"/>
   <path class="fil2" d="M4452.41 1306.61l-5 -5.01c-1.01,7.6 -2.64,5.89 5,5.01z"/>
   <path class="fil1" d="M4109.39 2098.68c-7.54,-1.44 -5.78,-2.96 -5.15,4.72l5.15 -4.72z"/>
   <path class="fil1" d="M4368.72 1223.89l-4.68 -5.1c-1.48,7.53 -3,5.79 4.68,5.1z"/>
   <path class="fil3" d="M4046.33 2162.78l-4.66 5.29c7.48,0.79 5.71,2.34 4.66,-5.29z"/>
   <path class="fil3" d="M4349.97 1203.48c0.55,-7.51 2.18,-5.81 -5.39,-4.49l5.39 4.49z"/>
   <path class="fil3" d="M3806.69 1149.95l-4.98 -4.88c-0.62,7.64 -2.44,6.18 4.98,4.88z"/>
   <path class="fil1" d="M4060.53 2147.66c-7.5,-0.81 -5.86,-2.48 -4.92,5l4.92 -5z"/>
   <path class="fil1" d="M4075.18 2132.95c-7.6,-0.93 -6.13,-2.77 -5.32,4.58l5.32 -4.58z"/>
   <path class="fil1" d="M4378.25 1233.95l-5.01 -4.88c-0.7,7.42 -2.38,5.8 5.01,4.88z"/>
   <path class="fil3" d="M4354.54 1208.79c1.12,-7.4 2.78,-5.77 -4.57,-5.31l4.57 5.31z"/>
   <path class="fil1" d="M4084.49 2122.72c-7.2,-0.75 -5.27,-2.14 -4.43,5.45l4.43 -5.45z"/>
   <path class="fil1" d="M4402.93 1258.16l-4.74 -5.13c-0.88,7.4 -2.58,5.8 4.74,5.13z"/>
   <path class="fil1" d="M4080.06 2128.18l-4.88 4.77c7.37,0.95 5.77,2.58 4.88,-4.77z"/>
   <path class="fil1" d="M4095.09 2113.86c-7.34,-1.25 -5.71,-2.88 -5.29,4.42l5.29 -4.42z"/>
   <path class="fil3" d="M4314.82 1170.06c1.16,-7.22 2.68,-5.49 -4.66,-5.07l4.66 5.07z"/>
   <path class="fil1" d="M4051.16 2157.9c-7.38,-0.51 -5.93,-2.29 -4.83,4.89l4.83 -4.89z"/>
   <path class="fil1" d="M4417.95 1272.51l-4.89 -4.98c-0.62,7.31 -2.33,5.73 4.89,4.98z"/>
   <path class="fil1" d="M4398.18 1253.03c0.89,-7.29 2.52,-5.71 -4.73,-4.92l4.73 4.92z"/>
   <path class="fil1" d="M4462.37 1315.99c1.11,-7.19 2.61,-5.47 -4.71,-4.96l4.71 4.96z"/>
   <path class="fil1" d="M3810.98 900.39l-4.55 5.05c7.29,0.43 5.8,2.14 4.55,-5.05z"/>
   <path class="fil3" d="M4153.92 2055.39c-7.34,-1.06 -5.88,-2.75 -5.02,4.44l5.02 -4.44z"/>
   <path class="fil1" d="M4104.24 2103.4c-7.14,-0.29 -5.41,-1.83 -4.18,5.5l4.18 -5.5z"/>
   <path class="fil1" d="M4383.47 1238.42c0.68,-7.13 2.15,-5.36 -5.21,-4.47l5.21 4.47z"/>
   <path class="fil3" d="M4339.33 1194.49c1.24,-7.31 2.95,-5.76 -4.2,-5.45l4.2 5.45z"/>
   <path class="fil1" d="M4055.61 2152.66l-4.45 5.24c7.1,0.54 5.37,2.05 4.45,-5.24z"/>
   <path class="fil1" d="M4393.45 1248.12l-5.44 -4.42c-0.46,7.02 -1.92,5.18 5.44,4.42z"/>
   <path class="fil1" d="M4373.24 1229.07c0.68,-7.33 2.5,-5.91 -4.52,-5.18l4.52 5.18z"/>
   <path class="fil3" d="M4163.29 2045.04c-6.97,-0.54 -5.11,-1.92 -4.17,5.44l4.17 -5.44z"/>
   <path class="fil3" d="M4139.29 2070.05l-5.41 4.19c7.17,1.26 5.56,2.89 5.41,-4.19z"/>
   <path class="fil1" d="M4065.7 2143.12l-5.17 4.53c7.23,0.79 5.72,2.51 5.17,-4.53z"/>
   <path class="fil1" d="M3806.43 905.44c-6.93,-0.47 -5.06,-1.87 -4.26,5.47l4.26 -5.47z"/>
   <path class="fil1" d="M4413.06 1267.53c0.62,-7.24 2.38,-5.76 -4.63,-5.08l4.63 5.08z"/>
   <path class="fil3" d="M4310.15 1164.99l-4.29 -5.31c-0.88,7.21 -2.64,5.75 4.29,5.31z"/>
   <path class="fil1" d="M4423.31 1276.88c0.41,-6.89 1.86,-5.08 -5.36,-4.37l5.36 4.37z"/>
   <path class="fil1" d="M4457.67 1311.04c0.24,-6.95 1.83,-5.29 -5.25,-4.43l5.25 4.43z"/>
   <path class="fil1" d="M4069.86 2137.53l-4.16 5.6c6.8,0.28 4.9,1.68 4.16,-5.6z"/>
   <path class="fil3" d="M4325.13 1179.24c0.05,-6.88 1.59,-5.19 -5.52,-3.98l5.52 3.98z"/>
   <path class="fil1" d="M3801.37 1922.79l-4.95 4.67c6.98,0.78 5.33,2.34 4.95,-4.67z"/>
   <polygon class="fil3" points="3899.77,855.48 3884.18,862.23 "/>
   <polygon class="fil1" points="3519.91,1692.9 3511.07,1688.62 "/>
   <polygon class="fil1" points="3761.2,978.3 3769.86,966.13 "/>
   <polygon class="fil3" points="3533.58,1698.44 3522.26,1692.44 "/>
   <polygon class="fil3" points="4601.36,1481.35 4592.88,1468.66 "/>
   <polygon class="fil1" points="3761.54,1070.23 3758.04,1059.29 "/>
   <polygon class="fil2" points="3761.93,1997.54 3767.85,1985.54 "/>
   <polygon class="fil3" points="3405.33,1489.25 3411.15,1477.68 "/>
   <polygon class="fil3" points="4604.17,1498.61 4598.96,1485.95 "/>
   <polygon class="fil1" points="3537.68,1359.74 3524.76,1367.58 "/>
   <polygon class="fil1" points="3412.4,1579.12 3404.65,1565.62 "/>
   <polygon class="fil3" points="4598.91,1572.38 4604.22,1559.94 "/>
   <polygon class="fil3" points="3761.49,2001.34 3758.17,2013.79 "/>
   <polygon class="fil3" points="3518,1364.55 3508.27,1371.14 "/>
   <polygon class="fil1" points="3985.52,868.7 3972.79,860.63 "/>
   <polygon class="fil1" points="3990.14,2197.63 3980.55,2201.72 "/>
   <polygon class="fil3" points="3895.27,2207.25 3883.22,2201.83 "/>
   <polygon class="fil1" points="3971.65,2203.07 3961.02,2206.5 "/>
   <polygon class="fil3" points="3877.61,862.29 3867.16,866.07 "/>
   <polygon class="fil1" points="3965.7,860.96 3951.67,856.39 "/>
   <path class="fil4" d="M2300.94 584.9c0.84,3.16 1.3,6.42 1.3,9.69l0 508.72c0.02,0 0.02,0 0.02,0 0,13.28 -7.11,25.57 -18.64,32.17l-426.97 245.83 -0.02 487.25c0,13.27 -7.05,25.5 -18.54,32.18l-891.29 513.09c-2.03,1.15 -4.26,1.89 -6.49,2.68 -0.84,0.28 -1.63,0.79 -2.51,1.02 -3.09,0.79 -6.29,1.21 -9.5,1.21 -3.21,0 -6.41,-0.42 -9.5,-1.23 -1.02,-0.28 -1.94,-0.84 -2.93,-1.21 -2.03,-0.74 -4.17,-1.39 -6.11,-2.51l-891.12 -513.04c-11.51,-6.66 -18.61,-18.92 -18.63,-32.21l-0.02 -1526.15c0,-3.35 0.45,-6.59 1.3,-9.74 0.28,-1.07 0.93,-2.03 1.29,-3.1 0.7,-1.94 1.35,-3.94 2.37,-5.75 0.7,-1.21 1.72,-2.17 2.56,-3.29 1.07,-1.49 2.03,-3.02 3.29,-4.31 1.07,-1.07 2.45,-1.86 3.66,-2.78 1.35,-1.12 2.56,-2.32 4.08,-3.21l0.03 0.02 445.56 -256.53c5.66,-3.24 12.07,-4.96 18.57,-4.96 6.5,0 12.92,1.72 18.54,4.96l445.56 256.53 0.09 0c1.49,0.93 2.73,2.08 4.08,3.16 1.21,0.93 2.56,1.77 3.61,2.78 1.3,1.35 2.23,2.87 3.35,4.36 0.79,1.12 1.86,2.09 2.51,3.29 1.07,1.86 1.66,3.8 2.42,5.75 0.37,1.07 1.02,2.03 1.3,3.16 0.84,3.14 1.3,6.4 1.3,9.67l0 953.24 371.3 -213.79 0 -487.31c0,-3.24 0.45,-6.54 1.3,-9.64 0.33,-1.12 0.93,-2.08 1.3,-3.15 0.74,-1.95 1.38,-3.95 2.42,-5.75 0.7,-1.21 1.72,-2.17 2.51,-3.29 1.12,-1.49 2.03,-3.01 3.35,-4.31 1.07,-1.07 2.42,-1.86 3.61,-2.79 1.39,-1.12 2.59,-2.31 4.08,-3.21l0.02 0.02 445.62 -256.54c5.64,-3.26 12.06,-4.98 18.56,-4.98 6.5,0 12.92,1.72 18.54,4.96l445.56 256.53c1.58,0.93 2.79,2.09 4.17,3.16 1.16,0.93 2.51,1.77 3.57,2.78 1.3,1.35 2.23,2.88 3.35,4.36 0.84,1.12 1.86,2.09 2.51,3.29 1.07,1.8 1.66,3.8 2.42,5.75 0.42,1.07 1.01,2.03 1.3,3.15l-0.02 0zm-72.97 496.95l0 -423.05 -155.93 89.76 -215.42 124.03 0 423.05 371.38 -213.79 -0.03 0zm-445.58 765.25l0 -423.31 -211.88 121.02 -605.07 345.33 0 427.3 816.97 -470.33 -0.02 -0.02zm-1708.1 -1440.47l0 1440.49 816.86 470.27 0 -427.22 -426.75 -241.52 -0.14 -0.09 -0.19 -0.09c-1.44,-0.84 -2.64,-2.03 -3.99,-3.07 -1.16,-0.93 -2.51,-1.66 -3.52,-2.68l-0.09 -0.14c-1.21,-1.16 -2.03,-2.59 -3.07,-3.89 -0.93,-1.25 -2.03,-2.32 -2.78,-3.61l-0.05 -0.14c-0.84,-1.38 -1.35,-3.07 -1.94,-4.64 -0.6,-1.39 -1.39,-2.68 -1.77,-4.17l0 -0.05c-0.46,-1.77 -0.56,-3.61 -0.74,-5.43 -0.19,-1.38 -0.56,-2.78 -0.56,-4.17l0 -0.09 0 -995.98 -215.34 -124.09 -155.93 -89.67 0 -0.03zm408.49 -277.93l-371.26 213.71 371.16 213.71 371.21 -213.74 -371.21 -213.65 0.11 -0.02zm193.06 1333.67l215.37 -123.98 0 -931.75 -155.93 89.76 -215.42 124.03 0 931.77 155.98 -89.81 0 -0.02zm1143.7 -1081.48l-371.21 213.71 371.21 213.71 371.16 -213.74 -371.16 -213.65 0 -0.02zm-37.15 491.71l-215.42 -124.03 -155.93 -89.76 0 423.05 215.37 123.98 155.98 89.81 0 -423.05zm-854.14 953.33l544.47 -310.84 272.17 -155.33 -370.93 -213.57 -427.08 245.88 -389.24 224.08 370.6 209.76 0.02 0.02z"/>
   <g>
    <path class="fil5" d="M3761.12 996.45l3.79 -27.7 8.64 -12.12 -2.09 -4.96c-0.52,-9.49 -3.26,-7.86 4.85,-7.86l8.51 -17.92c0.37,-8.27 -1.9,-6.43 5.94,-6.43l4.01 -8.21c0.11,-7.91 -1.87,-6.32 5.87,-4.85l5.08 -4.77c-0.79,-7.31 -2.66,-5.91 4.24,-5.45l4.53 -5.03c-1.28,-7.71 -2.78,-5.86 5.15,-4.93l5.71 -4.92 8.63 -3.83c0,-7.67 -1.76,-5.29 6.48,-6l30.01 -14.52 10.41 -3.75 6.55 -0.06 15.53 -6.73 51.72 0.91 13.98 4.56 7.07 -0.33 12.68 8.04 15.04 2.86c9.28,-0.3 7.62,-2.96 7.62,5.06l2 -0.2c9.46,-0.62 7.62,-3.19 7.62,5.34l12.94 8.32c7.9,0.95 6.06,-1.34 6.06,6.35l208.09 203.6 6.45 5.77 8.45 8.56 6.2 5.98 8.79 8.35 5.85 6.37 3.84 3.44c7.67,0.48 6.21,-1.68 5.49,5.52l5.28 5.66 4.12 3.09c7.88,0.28 6.25,-1.81 5.33,5.85l4.27 5.29c7.32,-0.42 5.81,-2.14 4.65,5.06l4.78 5.17c7.08,-1.21 5.55,-2.9 5.5,3.96 7.72,-0.84 6.41,-2.88 5.62,4.3 6.95,-0.6 5.01,-1.95 4.34,5.46 7.12,-0.31 5.41,-1.86 4.18,5.43l5.23 4.48c7.54,-1.31 5.92,-3 5.38,4.48 7.32,-0.46 5.66,-2.09 4.55,5.29l4.73 4.82c7.99,-1.52 6.17,-2.99 4.73,5.15l4.66 5.08c7,-0.73 5.18,-2.14 4.51,5.16l4.99 4.86c7.34,-0.88 5.87,-2.65 5.2,4.45 6.69,-0.18 4.95,-1.7 4.53,5.26l5.42 4.4c7.23,-0.79 5.61,-2.37 4.72,4.9l4.73 5.11c7.18,-0.62 5.75,-2.48 5.48,4.27 6.99,-0.68 5.23,-2.14 4.62,5.06l4.87 4.96c7.2,-0.7 5.75,-2.51 5.34,4.36 6.77,-0.32 5,-1.82 4.52,5.22 6.9,-0.25 5.32,-1.9 4.7,4.98 6.86,-0.15 5.26,-1.86 5.06,4.88 7.04,-0.9 5.37,-2.45 5.02,4.64 7.22,-0.47 5.73,-2.18 4.72,4.91l4.99 4.99c7.06,-0.86 5.48,-2.51 5.23,4.41 7.29,-0.51 5.8,-2.22 4.69,4.94l4.83 5.15c7.72,-1.12 5.6,-2.65 5.6,5.44l2.97 4.07c7.75,0 6.1,-2.03 5.67,5.42 7.55,-0.65 5.56,-2.31 5.56,5.44l3.59 3.67c8.08,0 6.02,-1.99 6.02,6.17l62.32 61.94c7.59,0 5.91,-1.99 5.66,5.32 7,-0.65 4.75,-2.03 5.48,5.58l13.53 22.4c8.2,0 5.6,-1.72 5.08,7.58l-0.05 1.73c8.49,0 5.55,-1.65 4.79,8.41l-1.01 3.8 8.45 12.64 -2.4 4.59 5.19 12.61 0.05 61.1 -5.29 12.4 -5.19 20.92c0.62,10.14 3.65,8.57 -4.65,8.57l-0.09 1.59c0.18,8.8 2.67,7.15 -5.1,7.15l-3.52 8.06c-0.86,8.53 1.7,6.88 -5.86,6.88l-4.24 7.52c-0.98,8.07 1.38,6.26 -6.3,6.26l-3.42 3.89c0,8.29 2.14,6.34 -5.92,6.34l-8.44 8.35c0,8.46 2.16,6.42 -6.17,6.42l-3.91 3.17c0,7.72 2.01,6.06 -5.45,5.59 0.61,7.51 2.26,5.52 -5.45,5.52l-3.06 3.96c0,8.43 2.09,6.29 -6.4,6.29l-9.04 7.75c0,8.18 2.09,6.22 -5.94,6.22l-286.23 291.36 -6.03 6.19 -8.21 8.78c-0.7,7.52 1.34,5.45 -6.3,6l-3.73 3.52c-0.68,7.37 1.45,5.88 -5.5,5.45 0.48,7.02 2,4.91 -5.34,5.65l-3.36 3.93c-0.48,7.49 1.54,5.84 -5.84,5.2 0.26,6.67 1.71,4.86 -5.33,4.38l-4.16 5.42c0.99,7.71 2.61,5.97 -5.18,4.9l-4.99 4.42c0.78,7.5 2.74,6.12 -4.27,5.61 0.63,7.15 2.11,5.32 -5.32,4.56 0.15,7.05 1.76,5.43 -5.39,4.18l-4.6 5.16c1.5,7.66 3.15,6.01 -4.52,5.32 0.46,7.5 2.19,5.97 -5.19,4.6l-4.83 4.78c1.48,7.78 2.81,5.85 -5.27,4.48l-5.13 4.71 -4.16 5.48c1.27,7.87 2.92,6.22 -4.95,4.95l-5.26 4.4c0.44,6.9 1.9,5.11 -5.3,4.42l-4.41 5.44c0.89,7.33 2.48,5.71 -4.86,4.76l-5.3 4.56c0.74,7.25 2.63,5.85 -4.14,5.58 0.55,7.02 2.05,5.3 -5.15,4.52l-4.9 4.99c0.91,7.26 2.64,5.75 -4.44,5.22l-4.81 4.87c1.05,7.6 2.82,6.06 -4.64,5.27 0.41,6.9 1.81,4.73 -5.77,5.04l-8.36 3.87c0,7.58 1.71,5.17 -6.57,5.84l-7.74 3.96c0,7.86 1.51,4.97 -8.12,4.63l-1.53 0.08c0,8.31 1.62,5.39 -8.31,4.8l-4.93 1.24 -9.56 4.08 -8.87 1.35 -10.59 3.42 -8.05 -0.49c-15.34,9.56 -30.01,8.4 -45.17,0.73l-12.29 0.5 -12.01 -5.4 -46.78 -18.85c-8.25,0.16 -6.91,2.38 -5.57,-5.28 -7.58,-0.07 -5.96,1.99 -5.96,-5.06l-12.95 -8.94c-7.78,-0.34 -5.84,1.74 -6.3,-5.78l-12.93 -18.9c-7.59,0 -5.26,1.77 -6.13,-6.24l-3.51 -8.53 -5 -7.99 -0.01 -1.7 -5.01 -7.67 -0.58 0.1c-8.53,0 -5.36,1.59 -4.54,-8.94 -6.45,-35.65 -8.06,-44.54 -9.3,-83.56l3.31 -12.41 0.43 -3.78 5.9 -11.96 -0.55 -7.03 4.46 -8.72 5.06 -10.81 5.09 -7.98 -0.07 -1.71c0.62,-8.72 -1.98,-7.08 5.66,-7.08l3.7 -8.74c-0,-8.01 -2.24,-6.64 5.11,-5.8l4.93 -4.65c-0.39,-7.56 -2.12,-5.57 5.64,-5.57l3.64 -3.32c0,-7.64 -1.93,-5.9 5.61,-5.41 -0.27,-7.46 -2.04,-5.54 5.52,-5.54l3.54 -3.61c0,-8.04 -1.92,-5.86 6.42,-5.86l8.32 -8.8c0,-8.15 -2.05,-6.13 6.09,-6.13l170.99 -172.97c-87.55,-11.21 -415.36,12.99 -461.56,-6.38l-20.99 0.06 -11.29 -5.97 -2.34 0.46 -8.81 -4.26 -21.58 -9.28c-8.81,-0.78 -7.26,1.92 -7.26,-5.55l-1.2 -0.33c-8.5,-0.76 -6.84,1.76 -6.84,-5.83 -18.2,-10.46 -28.11,-19.25 -37.98,-38.05 -7.66,0 -5.11,1.69 -6,-6.83l-9.28 -16.62c-7.95,0 -5.31,1.62 -4.86,-7.6l-3.31 -19.01 -7.72 -13.44 1.27 -8.95c-9.62,-16.34 -9.53,-38.34 -0.06,-54.7l-0.53 -12.44 5.8 -11.53 17.68 -43.51c-0.08,-8.7 -2.28,-6.61 6.27,-6.61 15.46,-20.02 17.67,-21.17 36.95,-36.91 0,-8.5 -2.11,-6.34 6.43,-6.34l29.43 -12.78 9.7 -6.56 6.73 3.02 12.88 -7.82 12.93 1.12c30.76,-15.52 174.35,-5.42 220.79,-5.42 74.73,0 149.47,0 224.33,0.54l11.5 -4.01 -118.24 -117.57 -6.02 -6.24 -3.43 -3.74 -5.61 -5.45c-6.99,0.42 -4.88,1.95 -5.6,-5.4l-4.04 -3.34c-7.56,-0.5 -5.98,1.55 -5.17,-5.81l-5.37 -5.6 -4.38 -2.81c-7.67,-0.39 -5.59,1.59 -5.97,-6.22l-3.25 -3.97 -5.77 -5.23c-7.17,0.71 -5.05,2.19 -5.56,-5.37l-3.95 -3.59c-7.74,-0.33 -6.26,1.79 -5.37,-5.54 -6.77,0.41 -4.88,1.79 -4.27,-5.44 -7.22,0.35 -5.68,2.04 -4.54,-5.12l-4.96 -4.79c-7.39,1.3 -5.58,2.75 -4.96,-4.86l-5.77 -5.11 -8.05 -13.93c-7.73,0 -5.21,1.71 -5.88,-6.89l-20.32 -48.65 -3.49 -10.9 -0.54 -10.11c-8.15,-16.47 -7.97,-26.45 -0.1,-42.89zm-243.51 -733.83c0,108.05 63.08,153.25 125.51,215.68 18.55,18.55 156.26,147.65 162.06,169.37 -28.75,2.39 -110.43,35.47 -137.9,47.31 -111.57,48.11 -242.8,149.73 -314.76,240.88l-77.71 107.51c-70.39,109.35 -127.63,285.17 -127.63,428.01 0,206.88 26.37,306.29 118.58,480.93 76.88,145.62 238.38,283.71 388.25,357.47 226.86,111.67 519.99,109.43 749.07,3.21 135.1,-62.65 260.25,-164.82 347.7,-285.93 88.71,-122.87 165.68,-308.73 165.68,-477.7l0 -87.73c0,-183.53 -88.35,-373.49 -168.5,-479.75 -12.62,-16.73 -20.51,-28.17 -33.32,-44.66l-79.44 -81.41c-93.4,-78.2 -455.26,-449.95 -531.49,-526.18 -54.8,-54.8 -106.04,-106.03 -160.84,-160.84 -67.04,-67.04 -101.48,-120.64 -220.55,-120.64 -27.39,0 -61.07,11.52 -81.36,21 -29.55,13.81 -39.47,24.82 -61.85,45.37l-12.08 12.3c-5.13,6.02 -6.29,7.81 -10.52,13.85 -22.93,32.73 -38.9,77.06 -38.9,121.94z"/>
    <path class="fil6" d="M3887.44 853.1l-6.55 0.06 -10.41 3.75 -30.01 14.52c0,7.83 1.82,5.49 -6.48,6l-8.63 3.83c0,7.56 1.85,5.86 -5.71,4.92l-5.15 4.93c1.25,7.16 2.74,5.47 -4.53,5.03l-4.24 5.45c0.83,7.78 2.57,6.23 -5.08,4.77l-5.87 4.85 -4.01 8.21c-0.72,8.17 1.64,6.43 -5.94,6.43l-8.51 17.92 -4.85 7.86 2.09 4.96 -8.64 12.12 -3.79 27.7 0.1 42.89 0.54 10.11 3.49 10.9 20.32 48.65c8.06,0 5.64,-1.83 5.88,6.89l8.05 13.93c7.88,0 6.45,-2.17 5.77,5.11l4.96 4.86c7.72,-1.27 6.1,-2.91 4.96,4.79 6.72,0.12 5.19,-1.57 4.54,5.12 6.92,-0.37 5.1,-1.82 4.27,5.44 7.35,-0.39 5.37,-2.05 5.37,5.54l3.95 3.59c7.61,0 5.97,-1.99 5.56,5.37 7.67,-0.68 5.77,-2.45 5.77,5.23l3.25 3.97c8.06,0 5.97,-1.97 5.97,6.22l4.38 2.81c7.81,0 6.18,-2.01 5.37,5.6 7.21,-0.2 5.17,-1.82 5.17,5.81l4.04 3.34c7.64,0 5.97,-1.99 5.6,5.4 7.54,-0.41 5.61,-2.17 5.61,5.45l3.43 3.74c8.11,0 6.02,-1.99 6.02,6.24l118.24 117.57 7.21 5.6 -463.82 3.29 -12.93 -1.12 -12.88 7.82 -6.73 -3.02 -9.7 6.56 -29.43 12.78c0,7.53 1.71,5.03 -6.43,6.34 -19.27,15.75 -21.48,16.89 -36.95,36.91 -1.13,8.34 1.39,6.61 -6.27,6.61l-17.68 43.51 -5.8 11.53 0.53 12.44 0.06 54.7 -1.27 8.95 7.72 13.44 3.31 19.01 4.86 7.6 9.28 16.62c8.19,0 5.81,-1.9 6,6.83 9.87,18.81 19.78,27.6 37.98,38.05 8.65,0.24 6.84,-2.16 6.84,5.83l1.2 0.33c9.11,-0.36 7.26,-2.82 7.26,5.55l21.58 9.28 8.81 4.26 2.34 -0.46 11.29 5.97 20.99 -0.06c113.42,-4.34 282.32,-0.08 406.9,-0.29 22.69,-0.04 43.21,-4.17 54.66,6.68l-170.99 172.97c-0.41,7.73 1.63,5.69 -6.09,6.13l-8.32 8.8c-0.49,7.62 1.48,5.5 -6.42,5.86l-3.54 3.61c-0.4,7.6 1.7,6.05 -5.52,5.54l-5.61 5.41 -3.64 3.32 -5.64 5.57c0.38,6.99 2.02,5.43 -4.93,4.65 -0.02,7.46 1.97,5.8 -5.11,5.8l-3.7 8.74c-0.16,8.85 2.33,7.08 -5.66,7.08l0.07 1.71c0.69,9.73 3.43,7.98 -5.09,7.98l-5.06 10.81c0.37,10.18 3.49,8.72 -4.46,8.72l0.55 7.03 -5.9 11.96 -0.43 3.78 -3.31 12.41c1.24,39.02 2.85,47.92 9.3,83.56l4.54 8.94 0.58 -0.1c8.04,0 5.36,-1.65 5.01,7.67l0.01 1.7c8.05,0 5.23,-1.6 5,7.99l3.51 8.53c8.04,0 5.89,-1.96 6.13,6.24l12.93 18.9c8.2,0 6.3,-2.14 6.3,5.78l12.95 8.94c8.54,-0.22 7.34,-2.63 5.96,5.06 7.29,0.07 5.57,-1.82 5.57,5.28l46.78 18.85 12.01 5.4 12.29 -0.5 45.17 -0.73 8.05 0.49 10.59 -3.42 8.87 -1.35 9.56 -4.08 4.93 -1.24 8.31 -4.8 1.53 -0.08 8.12 -4.63 7.74 -3.96c0,-7.73 -1.77,-5.37 6.57,-5.84l8.36 -3.87c0,-7.57 -1.85,-5.8 5.77,-5.04l4.64 -5.27c-1.09,-7.15 -2.54,-5.38 4.81,-4.87l4.44 -5.22c-0.94,-7.45 -2.57,-5.79 4.9,-4.99l5.15 -4.52 4.14 -5.58c-0.81,-7.32 -2.27,-5.48 5.3,-4.56l4.86 -4.76c-0.84,-7.57 -2.76,-6.18 4.41,-5.44 -0.32,-6.71 -1.77,-4.9 5.3,-4.42 -0.43,-7.27 -2.04,-5.65 5.26,-4.4l4.95 -4.95c-1.22,-7.3 -2.94,-5.76 4.16,-5.48 -0.62,-7.66 -2.38,-6.14 5.13,-4.71l5.27 -4.48c-1.42,-7.78 -2.98,-6.14 4.83,-4.78 0.25,-6.77 -1.51,-5.27 5.19,-4.6l4.52 -5.32c-1.48,-7.97 -3.25,-6.48 4.6,-5.16l5.39 -4.18c-0.15,-6.78 -1.71,-5.03 5.32,-4.56 -0.58,-7.13 -2.42,-5.63 4.27,-5.61 -0.86,-7.16 -2.32,-5.47 4.99,-4.42 -0.08,-6.78 -1.72,-5.06 5.18,-4.9 -0.93,-7.33 -2.79,-5.96 4.16,-5.42 -0.39,-6.8 -1.83,-4.97 5.33,-4.38 -0.26,-7.27 -1.87,-5.2 5.84,-5.2l3.36 -3.93c0,-7.7 -2.03,-6.08 5.34,-5.65 -0.47,-7.43 -2.14,-5.45 5.5,-5.45l3.73 -3.52c0,-8.12 -1.98,-6 6.3,-6l8.21 -8.78c0,-8.19 -2.07,-6.19 6.03,-6.19l286.23 -291.36c0.37,-7.77 -1.69,-5.79 5.94,-6.22l9.04 -7.75 6.4 -6.29 3.06 -3.96c0.62,-7.47 -1.53,-6 5.45,-5.52 -0.62,-7.15 -2.11,-5 5.45,-5.59l3.91 -3.17 6.17 -6.42 8.44 -8.35 5.92 -6.34 3.42 -3.89c0.63,-8.18 -1.64,-6.26 6.3,-6.26l4.24 -7.52c-0.18,-8.83 -2.5,-6.88 5.86,-6.88l3.52 -8.06 5.1 -7.15 0.09 -1.59 4.65 -8.57 5.19 -20.92 5.29 -12.4 -0.05 -61.1 -5.19 -12.61 2.4 -4.59 -8.45 -12.64 1.01 -3.8 -4.79 -8.41 0.05 -1.73 -5.08 -7.58 -13.53 -22.4c-7.52,0 -5.72,1.89 -5.48,-5.58 -7.18,0.63 -5.08,2.16 -5.66,-5.32l-62.32 -61.94 -6.02 -6.17 -3.59 -3.67c-7.51,-0.49 -6,1.63 -5.56,-5.44 -7.35,0.66 -5.26,2.23 -5.67,-5.42l-2.97 -4.07 -5.6 -5.44c-7.68,1.1 -5.91,2.66 -4.83,-5.15l-4.69 -4.94 -5.23 -4.41c-7.62,0.87 -5.99,2.57 -4.99,-4.99 -6.66,0.15 -5.06,1.76 -4.72,-4.91 -6.82,0.47 -5.23,2.1 -5.02,-4.64 -7.37,0.91 -5.68,2.53 -5.06,-4.88 -6.78,0.16 -5.19,1.8 -4.7,-4.98 -6.66,0.26 -4.89,1.74 -4.52,-5.22l-5.34 -4.36c-7.2,0.74 -5.5,2.32 -4.87,-4.96l-4.62 -5.06c-7.18,0.63 -5.75,2.48 -5.48,-4.27 -7.3,0.67 -5.61,2.26 -4.73,-5.11l-4.72 -4.9c-7.33,0.75 -5.87,2.59 -5.42,-4.4 -6.92,0.39 -5.16,1.91 -4.53,-5.26l-5.2 -4.45c-7.36,0.91 -5.69,2.53 -4.99,-4.86l-4.51 -5.16c-7.65,0.69 -6.14,2.43 -4.66,-5.08l-4.73 -5.15c-7.58,1.51 -5.84,2.94 -4.73,-4.82l-4.55 -5.29 -5.38 -4.48c-7.92,1.29 -6.56,3.18 -5.23,-4.48l-4.18 -5.43c-6.87,0.31 -5.04,1.77 -4.34,-5.46 -7.16,0.54 -5.67,2.4 -5.62,-4.3l-5.5 -3.96c-7.74,1.3 -5.9,2.77 -4.78,-5.17l-4.65 -5.06c-6.91,0.44 -5.14,1.89 -4.27,-5.29 -7.32,0.01 -5.33,1.75 -5.33,-5.85l-4.12 -3.09c-7.68,0 -5.97,1.93 -5.28,-5.66 -7.41,0.27 -5.49,2.01 -5.49,-5.52l-3.84 -3.44c-8.01,0 -5.85,1.92 -5.85,-6.37l-8.79 -8.35c-8.19,0 -6.2,2.08 -6.2,-5.98l-8.45 -8.56c-8.33,0 -6.45,2.19 -6.45,-5.77l-208.09 -203.6c-7.96,-0.76 -6.06,1.47 -6.06,-6.35l-12.94 -8.32 -7.62 -5.34 -2 0.2 -7.62 -5.06 -15.04 -2.86 -12.68 -8.04 -7.07 0.33 -13.98 -4.56 -51.72 -0.91 -15.53 6.73z"/>
    <path class="fil1" d="M4020.67 1692.57c-11.45,-10.85 -31.97,-6.71 -54.66,-6.68 -124.58,0.21 -293.48,-4.05 -406.9,0.29 46.2,19.37 374.01,-4.83 461.56,6.38z"/>
    <path class="fil2" d="M3555.13 1349.91l463.82 -3.29 -7.21 -5.6 -11.5 4.01c-74.85,-0.54 -149.59,-0.54 -224.33,-0.54 -46.44,0 -190.03,-10.1 -220.79,5.42z"/>
    <path class="fil1" d="M3410.93 1544.97l-0.06 -54.7c-9.47,16.36 -9.56,38.36 0.06,54.7z"/>
    <path class="fil3" d="M3955.94 2191.97l-45.17 0.73c15.16,7.67 29.83,8.84 45.17,-0.73z"/>
    <path class="fil3" d="M3761.21 1039.33l-0.1 -42.89c-7.87,16.43 -8.05,26.41 0.1,42.89z"/>
    <path class="fil2" d="M3494.1 1667.19c0,-8.37 1.86,-5.9 -7.26,-5.55 0,7.47 -1.55,4.77 7.26,5.55z"/>
    <path class="fil3" d="M3440.09 1416.18c-8.55,0 -6.35,-2.09 -6.27,6.61 7.66,0 5.14,1.73 6.27,-6.61z"/>
    <path class="fil2" d="M4581 1606.94c-8.36,0 -6.03,-1.94 -5.86,6.88 7.56,0 4.99,1.65 5.86,-6.88z"/>
    <path class="fil1" d="M3791.18 1928.98c-7.64,0 -5.05,-1.64 -5.66,7.08 8,0 5.51,1.77 5.66,-7.08z"/>
    <path class="fil1" d="M3791.45 1115.87c-0.24,-8.72 2.18,-6.89 -5.88,-6.89 0.66,8.6 -1.86,6.89 5.88,6.89z"/>
    <path class="fil1" d="M3440.83 1617.43c-0.2,-8.72 2.19,-6.83 -6,-6.83 0.89,8.52 -1.66,6.83 6,6.83z"/>
    <path class="fil3" d="M3483.47 1372.93c-8.54,-0 -6.43,-2.16 -6.43,6.34 8.14,-1.31 6.43,1.19 6.43,-6.34z"/>
    <path class="fil1" d="M3485.65 1661.31c0,-7.99 1.82,-5.59 -6.84,-5.83 0,7.59 -1.66,5.07 6.84,5.83z"/>
    <path class="fil1" d="M3840.47 871.44c-8.25,0.71 -6.48,-1.67 -6.48,6 8.3,-0.51 6.48,1.82 6.48,-6z"/>
    <path class="fil2" d="M3835.28 1880.46c-8.34,0 -6.42,-2.18 -6.42,5.86 7.9,-0.37 5.92,1.76 6.42,-5.86z"/>
    <path class="fil1" d="M4570.9 1621.35c-7.94,0 -5.67,-1.91 -6.3,6.26 7.68,0 5.32,1.8 6.3,-6.26z"/>
    <path class="fil1" d="M3795.98 2124.99c-0.24,-8.2 1.91,-6.24 -6.13,-6.24 0.87,8.02 -1.46,6.24 6.13,6.24z"/>
    <path class="fil1" d="M4030.22 2163.07c-8.34,0.47 -6.57,-1.89 -6.57,5.84 8.28,-0.68 6.57,1.73 6.57,-5.84z"/>
    <path class="fil1" d="M3790.76 919.43c-7.85,0 -5.57,-1.84 -5.94,6.43 7.59,0 5.22,1.73 5.94,-6.43z"/>
    <path class="fil2" d="M3849.69 1865.54c-8.13,0 -6.09,-2.03 -6.09,6.13 7.71,-0.44 5.68,1.6 6.09,-6.13z"/>
    <path class="fil3" d="M3853.88 1185.05c0,-8.19 2.09,-6.22 -5.97,-6.22 0.39,7.8 -1.69,5.82 5.97,6.22z"/>
    <path class="fil2" d="M4507.34 1684.9c-7.63,0.43 -5.57,-1.55 -5.94,6.22 8.03,0 5.94,1.96 5.94,-6.22z"/>
    <path class="fil3" d="M4200.92 1997.45c-8.28,0 -6.3,-2.12 -6.3,6 7.64,-0.55 5.6,1.51 6.3,-6z"/>
    <path class="fil3" d="M3815.21 2149.67c0,-7.92 1.9,-5.78 -6.3,-5.78 0.47,7.53 -1.48,5.44 6.3,5.78z"/>
    <path class="fil1" d="M4039.69 887.27c0,-7.68 1.84,-5.4 -6.06,-6.35 0,7.81 -1.9,5.59 6.06,6.35z"/>
    <path class="fil2" d="M3834.13 2163.67c1.38,-7.7 2.58,-5.28 -5.96,-5.06 0,7.06 -1.62,4.99 5.96,5.06z"/>
    <path class="fil3" d="M4307.58 1149.47c0.92,-7.66 2.55,-5.58 -5.33,-5.85 0,7.6 -1.99,5.86 5.33,5.85z"/>
    <path class="fil3" d="M3839.7 2168.95c0,-7.1 1.72,-5.2 -5.57,-5.28 -1.34,7.66 -2.68,5.43 5.57,5.28z"/>
    <path class="fil2" d="M4482.58 1325.28c0.43,-7.46 2.08,-5.42 -5.67,-5.42 0.41,7.65 -1.69,6.08 5.67,5.42z"/>
    <path class="fil3" d="M3829.37 1160.68c0,-7.59 1.98,-5.94 -5.37,-5.54 -0.89,7.34 -2.37,5.21 5.37,5.54z"/>
    <path class="fil2" d="M4536.74 1655.78c-7.56,0.59 -6.07,-1.55 -5.45,5.59 7.47,0.47 5.45,2.12 5.45,-5.59z"/>
    <path class="fil2" d="M4488.14 1330.72c0,-7.75 1.99,-6.09 -5.56,-5.44 -0.44,7.07 -1.95,4.95 5.56,5.44z"/>
    <path class="fil3" d="M4176.7 2022c-7.72,0 -6.11,-2.07 -5.84,5.2 7.39,0.63 5.37,2.29 5.84,-5.2z"/>
    <path class="fil2" d="M3825.32 1889.93c-7.56,0 -5.79,-1.92 -5.52,5.54 7.22,0.51 5.12,2.06 5.52,-5.54z"/>
    <path class="fil3" d="M4292.85 1134.87c0.72,-7.21 2.19,-5.04 -5.49,-5.52 0,7.53 -1.92,5.79 5.49,5.52z"/>
    <path class="fil3" d="M3799.99 1914.43c-7.35,-0.83 -5.12,-2.21 -5.11,5.8 7.08,0 5.1,1.66 5.11,-5.8z"/>
    <path class="fil3" d="M3868.8 1199.28c0,-7.63 2.04,-6.01 -5.17,-5.81 -0.81,7.36 -2.39,5.31 5.17,5.81z"/>
    <path class="fil3" d="M3838.88 1169.64c0.4,-7.36 2.05,-5.37 -5.56,-5.37 0.51,7.56 -1.61,6.08 5.56,5.37z"/>
    <path class="fil2" d="M4531.28 1661.38c-6.99,-0.48 -4.84,-1.95 -5.45,5.52 7.72,0 6.06,1.99 5.45,-5.52z"/>
    <path class="fil3" d="M4044.35 2154.16c-7.61,-0.76 -5.77,-2.52 -5.77,5.04 7.58,-0.31 6.17,1.86 5.77,-5.04z"/>
    <path class="fil1" d="M4571.2 1413.4c-0.72,-7.61 1.52,-6.23 -5.48,-5.58 -0.24,7.47 -2.04,5.58 5.48,5.58z"/>
    <path class="fil2" d="M4565.73 1407.82c0.25,-7.3 1.92,-5.32 -5.66,-5.32 0.58,7.47 -1.51,5.94 5.66,5.32z"/>
    <path class="fil3" d="M4185.39 2012.43c-7.37,-0.43 -5.34,-2.05 -5.34,5.65 7.34,-0.74 5.82,1.37 5.34,-5.65z"/>
    <path class="fil3" d="M4190.9 2006.98c-7.64,0 -5.97,-1.98 -5.5,5.45 6.95,0.43 4.83,1.92 5.5,-5.45z"/>
    <path class="fil3" d="M3878.45 1208.02c0.37,-7.39 2.04,-5.4 -5.6,-5.4 0.73,7.34 -1.38,5.82 5.6,5.4z"/>
    <path class="fil3" d="M4161.37 2037c-6.89,-0.16 -5.26,-1.88 -5.18,4.9 7.78,1.07 6.16,2.81 5.18,-4.9z"/>
    <path class="fil3" d="M4332.4 1173.25c0.79,-7.18 2.09,-5.14 -5.62,-4.3 -0.05,6.71 -1.54,4.84 5.62,4.3z"/>
    <path class="fil3" d="M4127.1 2071.16c-6.7,-0.68 -4.94,-2.17 -5.19,4.6 7.38,1.37 5.64,2.9 5.19,-4.6z"/>
    <path class="fil3" d="M4146.93 2051.94c-7.03,-0.46 -5.47,-2.22 -5.32,4.56 7.43,0.76 5.96,2.59 5.32,-4.56z"/>
    <path class="fil2" d="M4438.86 1281.31c0.2,-6.74 1.8,-5.03 -5.06,-4.88 -0.62,7.4 -2.31,5.78 5.06,4.88z"/>
    <path class="fil3" d="M4336.74 1178.71c0.67,-7.42 2.61,-6.07 -4.34,-5.46 -0.69,7.24 -2.53,5.77 4.34,5.46z"/>
    <path class="fil3" d="M4151.19 2046.32c-6.68,-0.02 -4.84,-1.52 -4.27,5.61 7.01,0.51 5.05,1.88 4.27,-5.61z"/>
    <path class="fil3" d="M3824 1155.14c0.82,-7.26 2.64,-5.81 -4.27,-5.44 -0.61,7.23 -2.49,5.85 4.27,5.44z"/>
    <path class="fil3" d="M3819.73 1149.69c0.64,-6.7 2.17,-5 -4.54,-5.12 -1.14,7.16 -2.68,5.48 4.54,5.12z"/>
    <path class="fil1" d="M4092.31 2104.56c-7.07,-0.48 -5.61,-2.29 -5.3,4.42 7.2,0.68 5.73,2.48 5.3,-4.42z"/>
    <path class="fil1" d="M4409.76 1251.85c0.27,-6.75 1.71,-4.89 -5.48,-4.27 -0.27,6.75 -1.7,4.9 5.48,4.27z"/>
    <path class="fil1" d="M4389.42 1233.17c0.42,-6.96 2.17,-5.44 -4.53,-5.26 -0.63,7.17 -2.39,5.65 4.53,5.26z"/>
    <path class="fil1" d="M4443.89 1285.95c0.35,-7.09 2.02,-5.54 -5.02,-4.64 -0.2,6.73 -1.79,5.1 5.02,4.64z"/>
    <path class="fil1" d="M4448.61 1290.86c1.01,-7.09 2.51,-5.38 -4.72,-4.91 -0.34,6.68 -1.94,5.06 4.72,4.91z"/>
    <path class="fil3" d="M4170.85 2027.21c-7.16,-0.6 -5.72,-2.42 -5.33,4.38 7.04,0.48 5.59,2.29 5.33,-4.38z"/>
    <path class="fil1" d="M4429.11 1271.45c0.49,-7.03 2.25,-5.54 -4.52,-5.22 -0.37,6.96 -2.14,5.48 4.52,5.22z"/>
    <path class="fil1" d="M4433.81 1276.43c0.62,-6.88 2.2,-5.23 -4.7,-4.98 -0.49,6.78 -2.08,5.14 4.7,4.98z"/>
    <path class="fil3" d="M3775.73 2092.96l-4.54 -8.94c-0.82,10.53 -3.99,8.94 4.54,8.94z"/>
    <path class="fil3" d="M4594.55 1453.51c0.76,-10.06 3.7,-8.41 -4.79,-8.41l4.79 8.41z"/>
    <path class="fil2" d="M3785.58 1937.77l-5.09 7.98c8.52,0 5.78,1.75 5.09,-7.98z"/>
    <path class="fil3" d="M4594.36 1581.58l-4.65 8.57c8.3,0 5.27,1.57 4.65,-8.57z"/>
    <path class="fil3" d="M4006.25 2177.58l-8.31 4.8c9.93,0.6 8.31,3.51 8.31,-4.8z"/>
    <path class="fil3" d="M4020.69 872.61c0,-8.54 1.83,-5.96 -7.62,-5.34l7.62 5.34z"/>
    <path class="fil1" d="M3775.44 1956.55l-4.46 8.72c7.94,0 4.83,1.46 4.46,-8.72z"/>
    <path class="fil1" d="M3786.34 2110.21c0.23,-9.59 3.05,-7.99 -5,-7.99l5 7.99z"/>
    <path class="fil3" d="M3776.31 943.79c-8.11,0 -5.37,-1.63 -4.85,7.86l4.85 -7.86z"/>
    <path class="fil3" d="M4589.81 1443.38c0.52,-9.3 3.13,-7.58 -5.08,-7.58l5.08 7.58z"/>
    <path class="fil1" d="M3781.33 2100.53c0.35,-9.32 3.03,-7.67 -5.01,-7.67l5.01 7.67z"/>
    <path class="fil3" d="M4015.91 2172.87l-8.12 4.63c9.63,0.34 8.12,3.23 8.12,-4.63z"/>
    <path class="fil3" d="M4011.07 867.47c0,-8.02 1.65,-5.36 -7.62,-5.06l7.62 5.06z"/>
    <path class="fil3" d="M3425.55 1593.98l-4.86 -7.6c-0.45,9.23 -3.1,7.6 4.86,7.6z"/>
    <path class="fil1" d="M4522.77 1670.86l-6.4 6.29c8.49,0 6.4,2.14 6.4,-6.29z"/>
    <path class="fil1" d="M4546.82 1646.19l-6.17 6.42c8.33,0 6.17,2.04 6.17,-6.42z"/>
    <path class="fil3" d="M4589.62 1591.73l-5.1 7.15c7.77,0 5.28,1.65 5.1,-7.15z"/>
    <path class="fil2" d="M4561.18 1631.5l-5.92 6.34c8.06,0 5.92,1.95 5.92,-6.34z"/>
    <path class="fil3" d="M3893.51 1223.44c0,-8.23 2.09,-6.24 -6.02,-6.24l6.02 6.24z"/>
    <path class="fil3" d="M4215.17 1982.48c-8.11,0 -6.03,-2 -6.03,6.19l6.03 -6.19z"/>
    <path class="fil3" d="M4283.51 1125.9l-5.85 -6.37c0,8.28 -2.16,6.37 5.85,6.37z"/>
    <path class="fil3" d="M4254.22 1096.64l-6.45 -5.77c0,7.96 -1.88,5.77 6.45,5.77z"/>
    <path class="fil3" d="M4268.87 1111.19l-6.2 -5.98c0,8.07 -1.99,5.98 6.2,5.98z"/>
    <path class="fil2" d="M4497.75 1340.56c0,-8.17 2.07,-6.17 -6.02,-6.17l6.02 6.17z"/>
    <path class="fil3" d="M4365.54 1208.36c1.43,-8.15 3.25,-6.67 -4.73,-5.15l4.73 5.15z"/>
    <path class="fil1" d="M4473.95 1315.79c0,-8.08 2.12,-6.56 -5.6,-5.44l5.6 5.44z"/>
    <path class="fil3" d="M3800.65 906.37c-7.74,-1.47 -5.76,-3.05 -5.87,4.85l5.87 -4.85z"/>
    <path class="fil3" d="M4117.08 2080.54l-5.27 4.48c8.07,1.37 6.75,3.3 5.27,-4.48z"/>
    <path class="fil1" d="M4136.22 2060.68c-7.85,-1.32 -6.08,-2.81 -4.6,5.16l4.6 -5.16z"/>
    <path class="fil3" d="M4102.52 2095.21l-4.95 4.95c7.87,1.27 6.22,2.92 4.95,-4.95z"/>
    <path class="fil1" d="M4321.28 1164.98l-4.78 -5.17c-1.13,7.95 -2.97,6.47 4.78,5.17z"/>
    <path class="fil3" d="M3819.65 886.2c-7.93,-0.93 -6.43,-2.78 -5.15,4.93l5.15 -4.93z"/>
    <path class="fil3" d="M3863.63 1193.47c0.81,-7.61 2.45,-5.6 -5.37,-5.6l5.37 5.6z"/>
    <path class="fil3" d="M3844.66 1174.87c0,-7.68 1.9,-5.91 -5.77,-5.23l5.77 5.23z"/>
    <path class="fil1" d="M4121.92 2075.76c-7.81,-1.36 -6.25,-2.99 -4.83,4.78l4.83 -4.78z"/>
    <path class="fil1" d="M4346.15 1188.62l-5.23 -4.48c-1.34,7.66 -2.69,5.77 5.23,4.48z"/>
    <path class="fil2" d="M4468.34 1310.36l-4.83 -5.15c-1.08,7.81 -2.85,6.25 4.83,5.15z"/>
    <path class="fil1" d="M3810.56 1904.21c-7.76,0 -6.02,-1.99 -5.64,5.57l5.64 -5.57z"/>
    <path class="fil3" d="M4298.13 1140.52l-5.28 -5.66c-0.69,7.59 -2.4,5.66 5.28,5.66z"/>
    <path class="fil1" d="M3805.73 901.6l-5.08 4.77c7.65,1.47 5.91,3.01 5.08,-4.77z"/>
    <path class="fil1" d="M3815.18 1144.57c1.15,-7.7 2.76,-6.06 -4.96,-4.79l4.96 4.79z"/>
    <path class="fil3" d="M4131.62 2065.84l-4.52 5.32c7.67,0.68 6.02,2.34 4.52,-5.32z"/>
    <path class="fil2" d="M3819.8 1895.47c-7.54,-0.49 -5.61,-2.23 -5.61,5.41l5.61 -5.41z"/>
    <path class="fil3" d="M3884.06 1213.46c0,-7.62 1.93,-5.86 -5.61,-5.45l5.61 5.45z"/>
    <path class="fil3" d="M3825.36 881.27l-5.71 4.92c7.56,0.94 5.71,2.64 5.71,-4.92z"/>
    <path class="fil1" d="M4360.8 1203.21l-4.73 -4.82c-1.11,7.76 -2.85,6.33 4.73,4.82z"/>
    <path class="fil3" d="M3805.27 1134.91c0.67,-7.28 2.11,-5.11 -5.77,-5.11l5.77 5.11z"/>
    <path class="fil2" d="M4453.59 1295.86l-4.99 -4.99c-1.01,7.57 -2.63,5.87 4.99,4.99z"/>
    <path class="fil1" d="M4111.82 2085.02c-7.51,-1.43 -5.76,-2.95 -5.13,4.71l5.13 -4.71z"/>
    <path class="fil1" d="M4370.2 1213.44l-4.66 -5.08c-1.48,7.51 -2.98,5.77 4.66,5.08z"/>
    <path class="fil3" d="M4048.99 2148.9l-4.64 5.27c7.46,0.79 5.69,2.34 4.64,-5.27z"/>
    <path class="fil3" d="M4351.53 1193.1c0.54,-7.48 2.16,-5.79 -5.38,-4.48l5.38 4.48z"/>
    <path class="fil3" d="M3810.23 1139.77l-4.96 -4.86c-0.62,7.61 -2.43,6.16 4.96,4.86z"/>
    <path class="fil1" d="M4063.14 2133.83c-7.47,-0.81 -5.84,-2.47 -4.9,4.99l4.9 -4.99z"/>
    <path class="fil1" d="M4077.74 2119.18c-7.58,-0.92 -6.11,-2.76 -5.3,4.56l5.3 -4.56z"/>
    <path class="fil1" d="M4379.7 1223.46l-4.99 -4.86c-0.7,7.39 -2.37,5.77 4.99,4.86z"/>
    <path class="fil3" d="M4356.07 1198.39c1.11,-7.38 2.77,-5.75 -4.55,-5.29l4.55 5.29z"/>
    <path class="fil1" d="M4087.01 2108.98c-7.17,-0.75 -5.26,-2.13 -4.41,5.44l4.41 -5.44z"/>
    <path class="fil1" d="M4404.29 1247.59l-4.73 -5.11c-0.89,7.38 -2.58,5.78 4.73,5.11z"/>
    <path class="fil1" d="M4082.6 2114.42l-4.86 4.76c7.34,0.95 5.75,2.57 4.86,-4.76z"/>
    <path class="fil1" d="M4097.57 2100.16c-7.31,-1.25 -5.69,-2.87 -5.26,4.4l5.26 -4.4z"/>
    <path class="fil3" d="M4316.5 1159.81c1.16,-7.2 2.67,-5.47 -4.65,-5.06l4.65 5.06z"/>
    <path class="fil1" d="M4053.8 2144.03c-7.35,-0.51 -5.9,-2.28 -4.81,4.87l4.81 -4.87z"/>
    <path class="fil1" d="M4419.25 1261.88l-4.87 -4.96c-0.62,7.28 -2.33,5.7 4.87,4.96z"/>
    <path class="fil1" d="M4399.56 1242.47c0.88,-7.27 2.51,-5.68 -4.72,-4.9l4.72 4.9z"/>
    <path class="fil1" d="M4463.51 1305.2c1.11,-7.16 2.6,-5.45 -4.69,-4.94l4.69 4.94z"/>
    <path class="fil1" d="M3814.5 891.12l-4.53 5.03c7.27,0.44 5.78,2.13 4.53,-5.03z"/>
    <path class="fil3" d="M4156.19 2041.9c-7.32,-1.05 -5.85,-2.74 -4.99,4.42l4.99 -4.42z"/>
    <path class="fil1" d="M4106.69 2089.73c-7.11,-0.29 -5.38,-1.82 -4.16,5.48l4.16 -5.48z"/>
    <path class="fil1" d="M4384.9 1227.91c0.68,-7.11 2.14,-5.34 -5.2,-4.45l5.2 4.45z"/>
    <path class="fil3" d="M4340.92 1184.14c1.23,-7.29 2.94,-5.74 -4.18,-5.43l4.18 5.43z"/>
    <path class="fil1" d="M4058.24 2138.81l-4.44 5.22c7.08,0.54 5.35,2.04 4.44,-5.22z"/>
    <path class="fil1" d="M4394.84 1237.58l-5.42 -4.4c-0.45,7 -1.91,5.16 5.42,4.4z"/>
    <path class="fil1" d="M4374.71 1218.6c0.67,-7.3 2.49,-5.89 -4.51,-5.16l4.51 5.16z"/>
    <path class="fil3" d="M4165.52 2031.58c-6.95,-0.54 -5.09,-1.91 -4.16,5.42l4.16 -5.42z"/>
    <path class="fil3" d="M4141.61 2056.5l-5.39 4.18c7.14,1.25 5.54,2.87 5.39,-4.18z"/>
    <path class="fil1" d="M4068.29 2129.31l-5.15 4.52c7.2,0.78 5.7,2.51 5.15,-4.52z"/>
    <path class="fil1" d="M3809.97 896.15c-6.91,-0.46 -5.04,-1.86 -4.24,5.45l4.24 -5.45z"/>
    <path class="fil1" d="M4414.38 1256.92c0.61,-7.21 2.37,-5.74 -4.62,-5.06l4.62 5.06z"/>
    <path class="fil3" d="M4311.85 1154.76l-4.27 -5.29c-0.87,7.18 -2.63,5.73 4.27,5.29z"/>
    <path class="fil1" d="M4424.59 1266.24c0.41,-6.87 1.86,-5.06 -5.34,-4.36l5.34 4.36z"/>
    <path class="fil1" d="M4458.82 1300.26c0.24,-6.92 1.82,-5.27 -5.23,-4.41l5.23 4.41z"/>
    <path class="fil1" d="M4072.44 2123.74l-4.14 5.58c6.77,0.28 4.88,1.68 4.14,-5.58z"/>
    <path class="fil3" d="M4326.78 1168.94c0.05,-6.86 1.59,-5.18 -5.5,-3.96l5.5 3.96z"/>
    <path class="fil1" d="M3804.92 1909.78l-4.93 4.65c6.95,0.78 5.31,2.33 4.93,-4.65z"/>
    <polygon class="fil3" points="3902.97,846.37 3887.44,853.1 "/>
    <polygon class="fil1" points="3524.49,1680.73 3515.69,1676.47 "/>
    <polygon class="fil1" points="3764.9,968.74 3773.54,956.62 "/>
    <polygon class="fil3" points="3538.12,1686.25 3526.83,1680.27 "/>
    <polygon class="fil3" points="4601.99,1469.96 4593.54,1457.31 "/>
    <polygon class="fil1" points="3765.25,1060.33 3761.75,1049.44 "/>
    <polygon class="fil2" points="3765.63,1984.26 3771.53,1972.3 "/>
    <polygon class="fil3" points="3410.33,1477.83 3416.14,1466.3 "/>
    <polygon class="fil3" points="4604.79,1487.16 4599.59,1474.54 "/>
    <polygon class="fil1" points="3542.21,1348.79 3529.33,1356.6 "/>
    <polygon class="fil1" points="3417.37,1567.36 3409.66,1553.92 "/>
    <polygon class="fil3" points="4599.55,1560.65 4604.84,1548.26 "/>
    <polygon class="fil3" points="3765.2,1988.04 3761.89,2000.45 "/>
    <polygon class="fil3" points="3522.6,1353.58 3512.9,1360.14 "/>
    <polygon class="fil1" points="3988.4,859.55 3975.73,851.51 "/>
    <polygon class="fil1" points="3993.01,2183.62 3983.45,2187.69 "/>
    <polygon class="fil3" points="3898.49,2193.2 3886.48,2187.8 "/>
    <polygon class="fil1" points="3974.59,2189.04 3963.99,2192.46 "/>
    <polygon class="fil3" points="3880.89,853.16 3870.48,856.92 "/>
    <polygon class="fil1" points="3968.66,851.84 3954.68,847.28 "/>
   </g>
  </g>
  <g id="_105553229108576">
   <path class="fil7" d="M10336.42 2328.92l-138.93 -0.15c22.76,-71.81 136.75,-90.17 138.93,0.15zm-264.48 -54.71c53.37,-10.01 84.55,1.15 86.94,54.25l-116.15 0.38c5.75,-32.94 12.25,-37.95 29.21,-54.64zm-90.38 -6.62c19.85,19.93 22.6,23.55 20.34,60.64l-86.1 0.7c5.33,-43.43 22.62,-61.98 65.76,-61.35zm-316.45 60.99c17.41,-59.62 62.35,-66.82 130.62,-49.7l10.84 49.6 -141.46 0.1zm-58.34 -55.21c14.51,18.85 18.53,20.28 21.95,52.58l-118.03 2.8c9,-48.75 40.58,-63.98 96.07,-55.37zm-137.06 55.78l-85.95 -0.88c10.12,-76.83 94.9,-96.12 85.95,0.88zm475.45 -95.39c28.01,-48.23 57.56,-85.36 88.77,-136.16 55.55,-90.41 4.33,-85.68 -26.16,-140.89l307.58 7.21c-8.27,43.45 -57.15,98.82 -69.21,150.71 -15.68,67.48 49.22,87.22 76.67,118.94l-377.65 0.2zm-224.02 -278.26l-48.12 63.86c-5.71,73.93 80.68,158.57 109.53,214.79l-377.92 -4.01c35.96,-31.6 95.01,-55.12 74.36,-123.3 -15.58,-51.43 -58,-100.02 -66.87,-138.73l309.02 -12.61zm-47.07 -268.11c30.35,60.97 -16.62,63.75 -26.71,110.88 -12.2,57.06 19.21,67.33 35.2,104.1 -54.85,21.68 -165,19.23 -227.73,13.39 3.23,-17.26 -4.87,-4.21 17.94,-27.75 118.28,-122.1 -43.32,-135.75 11.43,-300.82 66.63,-42.46 170.74,61.75 189.87,100.2zm373.47 219.65c1.55,-32.12 1.83,-11.72 19.1,-39.96 9.74,-15.92 16.06,-30.18 15.51,-52.26 -1.18,-47.6 -39.9,-53.5 -37.97,-96.93 2.16,-48.68 87.89,-125.86 138.07,-135.94 109.46,-21.99 70.06,99.69 47.89,166.05 -11.07,33.15 -30.14,71.56 -10.4,104.77 7.77,13.06 25.92,25.07 34.93,34.15 27.62,27.82 14.63,7.88 17.38,33.5l-224.51 -13.38zm-58.16 -379.67c3.42,67.19 -87.58,140.94 -121.29,165.99 -31.59,-20.32 -55.65,-40.82 -87.03,-64.77 -26.64,-20.34 -50.13,-42.58 -54.24,-86.94 42.78,-66.03 74.85,-36.67 127.68,-5.7l13.59 6.48c46.52,-42.71 71.76,-66.72 121.29,-15.07zm-1245.66 452.99c41.87,-36.18 76.4,-46.95 110.78,-87.33 91.05,-106.94 153.93,-258.41 176.25,-403.03l188.17 21.1c-15.6,128.06 -75.49,261.93 -140.26,342.73 -55.02,68.63 -122.19,130.39 -223.91,140.76 -40.12,4.08 -79.87,4.54 -111.02,-14.23zm1263.99 -717.5c-59.41,15.75 -140.08,53.51 -204.74,77.07 -1358.64,495.22 -1073.07,-613.22 -557.96,-879.62 123.86,-64.06 316.66,-112.41 449.08,-21.88 191.26,130.77 296.82,515.04 313.61,824.42zm-132.62 -952.95c-217.63,-215.58 -468.42,-155.44 -717.23,14.62 -199.66,136.47 -390.88,348.55 -458.02,584.54 -64.13,225.4 9.9,400.99 120.05,535.1 -106.07,304.4 -371.29,564.22 40.12,803.25 72.14,41.91 205.6,95.26 304.89,95.73l-0.31 -234.7c-136.85,-49.04 -81.09,-87.91 26.41,-220.42 20.23,-24.94 115.9,-130.78 145.94,-145.72l-46.13 648.48 1128.84 0.44 -56.28 -686.63c114.06,-97.34 149.83,-247.67 123.42,-436.33 37.38,9.45 50.65,15.27 68.37,54.23 61.93,136.17 -49.16,128.81 -21.35,323.55l156.19 0.13c17.82,-169.54 -27.41,-142.5 -46.94,-274.01 -7.03,-47.35 -26.06,-86.63 -46.4,-120.27 -27.54,-45.55 -45.28,-47.42 -101.87,-74 -68.34,-32.11 -76.66,-285.67 -390.02,-293.27l-18.78 -102.11 439.17 0.17c-35.88,-127.59 -268.51,-569.25 -365.4,-663.51 -28.98,-28.19 -64.59,-87.23 -131.2,-64.91 -70.22,23.52 -121.32,180.65 -153.49,255.65z"/>
   <path class="fil8" d="M9170.35 897.03c113.46,-33.01 206.13,45.23 230.23,137.07 29.06,110.78 -42.26,209.79 -124.48,236.82 -241.61,79.42 -362.91,-299.08 -105.75,-373.89zm837.35 365.83c-16.8,-309.38 -122.35,-693.66 -313.61,-824.42 -132.42,-90.54 -325.22,-42.18 -449.08,21.88 -515.12,266.4 -800.68,1374.84 557.96,879.62 64.66,-23.57 145.32,-61.32 204.74,-77.07z"/>
   <path class="fil8" d="M9875.08 309.91c32.17,-75 83.26,-232.13 153.49,-255.65 66.62,-22.32 102.23,36.72 131.2,64.91 96.89,94.26 329.51,535.92 365.4,663.51l-439.17 -0.17 18.78 102.11c313.35,7.6 321.67,261.16 390.02,293.27 56.59,26.58 74.33,28.46 101.87,74 20.34,33.65 39.37,72.92 46.4,120.27 19.54,131.51 64.77,104.47 46.94,274.01l-156.19 -0.13c-27.81,-194.73 83.29,-187.38 21.35,-323.55 -17.72,-38.96 -31,-44.78 -68.37,-54.23 26.4,188.66 -9.36,338.99 -123.42,436.33l56.28 686.63 -1128.84 -0.44 46.13 -648.48c-30.04,14.94 -125.71,120.78 -145.94,145.72 -107.49,132.51 -163.26,171.38 -26.41,220.42l0.31 234.7c-99.29,-0.47 -232.75,-53.82 -304.89,-95.73 -411.41,-239.03 -146.19,-498.84 -40.12,-803.25 -110.14,-134.1 -184.17,-309.69 -120.05,-535.1 67.14,-235.98 258.36,-448.07 458.02,-584.54 248.81,-170.07 499.6,-230.2 717.23,-14.62zm-16.75 -84.38c-285.17,-190.96 -520.79,-96.29 -774.29,93.38 -49.53,37.06 -151.16,120.43 -185.09,165.88 -19.81,26.53 -37.07,36.62 -56.24,60.74 -197.51,248.47 -298.66,540.98 -128.2,833.58 19.2,32.95 33.93,47.93 51.93,74.81 -49.28,93.13 -185.23,380.64 -185.23,506.95 0,44.53 15.69,68.71 27.69,99.05 75.95,192.18 396.69,339.66 606.01,339.66l0 -331.47c-35.22,-2.93 -46.46,-12.15 -77.99,-19.5 7.77,-33.35 7.01,-28.57 26.73,-51.26l77.89 -87.85c23.21,-27.99 8.86,-24.19 41.62,-46.12 -19.55,83.91 -7.7,197.22 -23.47,288.5 -16.66,96.42 -4.99,199.64 -25.28,286.7l1238.13 0 -49.73 -642.61c-7.15,-59.48 -25.15,-59.44 59.48,-156.82 0,39.62 -3.25,31.39 9.75,58.5l243.73 0c1.71,-76.49 32.28,-131.08 -21.25,-251.72 -17.1,-38.53 -9.99,-3.98 -19.1,-58.89 -4.01,-24.19 -10.58,-51.11 -15.92,-71.82 -30.63,-118.7 -101.27,-144.6 -158.44,-182.77 -26.08,-17.42 -43.08,-70.25 -64,-101.73 -69.65,-104.85 -166.64,-190.98 -315.97,-190.98l458.2 -9.75 -74.54 -178.93c-64.6,-132.14 -181.4,-375.32 -273.7,-496.48 -84.96,-111.53 -192.13,-246.65 -326.31,-67.38 -16.91,22.59 -59.6,109.24 -66.38,138.35z"/>
   <path class="fil7" d="M9170.35 897.03c-257.16,74.81 -135.86,453.31 105.75,373.89 82.22,-27.03 153.54,-126.04 124.48,-236.82 -24.1,-91.84 -116.77,-170.08 -230.23,-137.07z"/>
   <path class="fil8" d="M8743.72 1980.36c31.15,18.77 70.9,18.31 111.02,14.23 101.72,-10.36 168.89,-72.13 223.91,-140.76 64.77,-80.8 124.67,-214.66 140.26,-342.73l-188.17 -21.1c-22.32,144.62 -85.19,296.09 -176.25,403.03 -34.38,40.38 -68.9,51.14 -110.78,87.33z"/>
   <path class="fil8" d="M9945.16 2233.76l377.65 -0.2c-27.45,-31.72 -92.35,-51.46 -76.67,-118.94 12.06,-51.89 60.94,-107.27 69.21,-150.71l-307.58 -7.21c30.49,55.21 81.71,50.48 26.16,140.89 -31.21,50.8 -60.77,87.93 -88.77,136.16z"/>
   <path class="fil8" d="M9412.13 1968.11c8.87,38.71 51.29,87.3 66.87,138.73 20.65,68.18 -38.4,91.69 -74.36,123.3l377.92 4.01c-28.85,-56.22 -115.25,-140.86 -109.53,-214.79l48.12 -63.86 -309.02 12.61z"/>
   <path class="fil8" d="M9484.2 1587.19c-54.76,165.06 106.84,178.71 -11.43,300.82 -22.8,23.54 -14.71,10.49 -17.94,27.75 62.73,5.84 172.89,8.29 227.73,-13.39 -15.99,-36.77 -47.4,-47.04 -35.2,-104.1 10.08,-47.13 57.05,-49.92 26.71,-110.88 -19.14,-38.45 -123.25,-142.66 -189.87,-100.2z"/>
   <path class="fil8" d="M10047.54 1907.04l224.51 13.38c-2.75,-25.62 10.24,-5.68 -17.38,-33.5 -9.02,-9.09 -27.17,-21.09 -34.93,-34.15 -19.74,-33.21 -0.67,-71.62 10.4,-104.77 22.17,-66.36 61.57,-188.04 -47.89,-166.05 -50.18,10.08 -135.91,87.26 -138.07,135.94 -1.92,43.44 36.79,49.33 37.97,96.93 0.55,22.08 -5.77,36.34 -15.51,52.26 -17.27,28.24 -17.55,7.85 -19.1,39.96z"/>
   <path class="fil9" d="M9726.81 1541.65c4.11,44.36 27.6,66.6 54.24,86.94 31.38,23.95 55.44,44.45 87.03,64.77 33.71,-25.05 124.72,-98.8 121.29,-165.99 -49.53,-51.65 -74.78,-27.64 -121.29,15.07l-13.59 -6.48c-52.84,-30.98 -84.9,-60.33 -127.68,5.7z"/>
   <path class="fil8" d="M9665.11 2328.58l141.46 -0.1 -10.84 -49.6c-68.27,-17.12 -113.21,-9.92 -130.62,49.7z"/>
   <path class="fil8" d="M10336.42 2328.92c-2.18,-90.31 -116.17,-71.96 -138.93,-0.15l138.93 0.15z"/>
   <path class="fil8" d="M10071.94 2274.21c-16.96,16.69 -23.46,21.7 -29.21,54.64l116.15 -0.38c-2.39,-53.1 -33.56,-64.27 -86.94,-54.25z"/>
   <path class="fil8" d="M9606.77 2273.37c-55.49,-8.61 -87.07,6.62 -96.07,55.37l118.03 -2.8c-3.42,-32.29 -7.44,-33.73 -21.95,-52.58z"/>
   <path class="fil8" d="M9469.71 2329.15c8.95,-97 -75.83,-77.72 -85.95,-0.88l85.95 0.88z"/>
   <path class="fil8" d="M9981.56 2267.59c-43.14,-0.63 -60.43,17.91 -65.76,61.35l86.1 -0.7c2.26,-37.09 -0.49,-40.72 -20.34,-60.64z"/>
  </g>
 </g>
</svg>
